<svg id="Calque_1" data-name="Calque 1" xmlns="http://www.w3.org/2000/svg" viewBox="0 0 500 500">
  <defs>
    <style>
      .cls-1 {
        fill: #9e1346;
      }
    </style>
  </defs>
  <title>flèche_rouge</title>
  <rect class="cls-1" x="58.99" y="217.71" width="414.01" height="78.36" rx="32.5" ry="32.5"/>
  <path class="cls-1" d="M160.65,406.62,40.18,276.07c-12.12-13.14-9.75-32.36,5.3-42.94h0c15.05-10.58,37.08-8.5,49.2,4.63L215.15,368.31c12.13,13.13,9.75,32.36-5.3,42.93h0C194.8,421.82,172.77,419.75,160.65,406.62Z"/>
  <path class="cls-1" d="M159.47,105.38,39,235.93c-12.12,13.14-9.75,32.36,5.3,42.94h0c15.05,10.58,37.08,8.5,49.2-4.63L214,143.69c12.12-13.13,9.74-32.36-5.31-42.93h0C193.62,90.18,171.6,92.25,159.47,105.38Z"/>
</svg>
