<svg id="Calque_1" data-name="Calque 1" xmlns="http://www.w3.org/2000/svg" viewBox="0 0 500 500">
  <title>flèche</title>
  <g>
    <rect x="58.43" y="217.14" width="415.14" height="79.49" rx="33.07" ry="33.07"/>
    <path d="M440.5,217.71a32.5,32.5,0,0,1,32.5,32.5v13.36a32.51,32.51,0,0,1-32.5,32.5h-349A32.51,32.51,0,0,1,59,263.57V250.21a32.5,32.5,0,0,1,32.5-32.5h349m0-1.13h-349a33.67,33.67,0,0,0-33.63,33.63v13.36A33.67,33.67,0,0,0,91.49,297.2h349a33.67,33.67,0,0,0,33.63-33.63V250.21a33.66,33.66,0,0,0-33.63-33.63Z"/>
  </g>
  <g>
    <path d="M187.93,418.62c-10.83,0-20.94-4.22-27.73-11.58L39.72,276.49A28.47,28.47,0,0,1,32,254c.91-8.47,5.58-16.07,13.16-21.39a39,39,0,0,1,22.28-6.87c10.83,0,20.93,4.22,27.73,11.58L215.61,367.89a28.37,28.37,0,0,1,7.75,22.47c-.91,8.47-5.58,16.07-13.15,21.39A39,39,0,0,1,187.93,418.62Z"/>
    <path d="M67.41,226.38c10.22,0,20.36,3.89,27.27,11.38L215.15,368.31c12.13,13.13,9.75,32.36-5.3,42.93h0A38.12,38.12,0,0,1,187.93,418c-10.23,0-20.36-3.89-27.28-11.38L40.18,276.07c-12.12-13.14-9.75-32.36,5.3-42.94h0a38.19,38.19,0,0,1,21.93-6.75m0-1.24h0a39.63,39.63,0,0,0-22.64,7C37.05,237.55,32.28,245.3,31.36,254a29,29,0,0,0,7.91,23L159.74,407.46c6.91,7.49,17.18,11.78,28.19,11.78a39.62,39.62,0,0,0,22.63-7c7.73-5.43,12.49-13.18,13.42-21.83a29.08,29.08,0,0,0-7.91-23L95.59,236.92c-6.91-7.49-17.18-11.78-28.18-11.78Z"/>
  </g>
  <g>
    <path d="M66.23,286.24A39.06,39.06,0,0,1,44,279.38C36.37,274.05,31.7,266.45,30.8,258a28.4,28.4,0,0,1,7.75-22.47L159,105c6.79-7.36,16.9-11.58,27.73-11.58A39,39,0,0,1,209,100.25c7.57,5.32,12.25,12.92,13.15,21.39a28.37,28.37,0,0,1-7.75,22.47L94,274.66c-6.8,7.36-16.9,11.58-27.73,11.58Z"/>
    <path d="M186.75,94a38.1,38.1,0,0,1,21.92,6.76h0c15.05,10.57,17.43,29.8,5.31,42.93L93.5,274.24c-6.91,7.49-17,11.38-27.27,11.38a38.21,38.21,0,0,1-21.93-6.75h0c-15-10.58-17.42-29.8-5.3-42.94L159.47,105.38C166.39,97.89,176.52,94,186.75,94m0-1.24c-11,0-21.28,4.29-28.19,11.78L38.09,235.09a29,29,0,0,0-7.91,23c.92,8.65,5.69,16.4,13.41,21.83a39.68,39.68,0,0,0,22.64,7c11,0,21.27-4.29,28.18-11.78L214.89,144.53a29,29,0,0,0,7.91-23c-.93-8.65-5.69-16.4-13.41-21.83a39.68,39.68,0,0,0-22.64-7Z"/>
  </g>
</svg>
